<?xml version="1.0" standalone="no"?><!DOCTYPE svg PUBLIC "-//W3C//DTD SVG 1.1//EN" "http://www.w3.org/Graphics/SVG/1.1/DTD/svg11.dtd"><svg t="1738735685468" class="icon" viewBox="0 0 1365 1024" version="1.1" xmlns="http://www.w3.org/2000/svg" p-id="5280" xmlns:xlink="http://www.w3.org/1999/xlink" width="85.3125" height="64"><path d="M0 0h1350.570667v512H0z" fill="#0038A8" p-id="5281"></path><path d="M0 512h1350.570667v512H0z" fill="#CE1126" p-id="5282"></path><path d="M877.226667 512L0 1024V0" fill="#FFFFFF" p-id="5283"></path><path d="M226.517333 512a102.4 101.290667 90 1 0 202.581334 0 102.4 101.290667 90 1 0-202.581334 0Z" fill="#FCD116" p-id="5284"></path><path d="M113.962667 512l13.226666 13.397333 200.618667-13.397333-200.576-13.397333zM136.405333 537.386667l10.794667 10.922666 180.608-36.309333zM136.405333 486.613333l10.794667-10.965333 180.608 36.352z" fill="#FCD116" p-id="5285"></path><path d="M176.597333 360.021333l-0.128 18.858667L327.808 511.274667 195.456 359.936zM174.506667 393.856l-0.085334 15.36L327.808 511.274667z" fill="#FCD116" p-id="5286"></path><path d="M210.389333 357.930667l15.402667-0.085334 101.973333 153.386667z" fill="#FCD116" p-id="5287"></path><path d="M327.168 297.429333l-13.397333 13.226667 13.397333 200.576 13.397333-200.533333zM301.781333 319.829333l-10.922666 10.837334 36.309333 180.565333zM352.554667 319.829333l10.965333 10.837334-36.352 180.565333z" fill="#FCD116" p-id="5288"></path><path d="M479.104 360.021333l-18.816-0.085333-132.352 151.296 151.296-132.352z" fill="#FCD116" p-id="5289"></path><path d="M445.312 357.930667l-15.36-0.042667-102.016 153.344zM481.194667 393.856l0.085333 15.36-153.344 102.016z" fill="#FCD116" p-id="5290"></path><path d="M541.653333 512l-13.269333-13.397333-200.576 13.397333 200.533333 13.397333zM519.210667 486.613333l-10.837334-10.965333-180.565333 36.352zM519.210667 537.386667l-10.837334 10.922666-180.565333-36.309333z" fill="#FCD116" p-id="5291"></path><path d="M479.018667 663.936l0.085333-18.858667-151.296-132.352 132.352 151.296z" fill="#FCD116" p-id="5292"></path><path d="M481.109333 630.101333l0.042667-15.36-153.344-102.016z" fill="#FCD116" p-id="5293"></path><path d="M445.141333 666.026667l-15.36 0.085333-101.973333-153.386667z" fill="#FCD116" p-id="5294"></path><path d="M328.405333 726.570667l13.397334-13.226667-13.397334-200.618667-13.397333 200.576z" fill="#FCD116" p-id="5295"></path><path d="M353.834667 704.128l10.922666-10.837333-36.352-180.565334z" fill="#FCD116" p-id="5296"></path><path d="M303.018667 704.128l-10.965334-10.837333 36.352-180.565334z" fill="#FCD116" p-id="5297"></path><path d="M176.469333 663.936l18.858667 0.085333 132.352-151.296L176.341333 645.077333z" fill="#FCD116" p-id="5298"></path><path d="M210.261333 666.026667l15.402667 0.085333 101.973333-153.386667z" fill="#FCD116" p-id="5299"></path><path d="M174.378667 630.101333l-0.085334-15.36 153.386667-102.016z" fill="#FCD116" p-id="5300"></path><path d="M788.608 512l-38.101333 13.354667-0.810667 40.746666-24.32-32.469333-38.613333 11.776 23.04-33.408zM788.608 512l-38.101333-13.397333-0.810667-40.746667-24.32 32.469333-38.613333-11.776 23.04 33.450667zM63.274667 934.741333l7.466666-39.68-34.858666-21.077333 40.277333-4.821333 9.088-39.296 17.450667 36.650666zM63.274667 934.741333l30.634666-26.282666 35.712 19.626666-15.957333-37.290666 29.482667-27.52-40.448 3.242666z" fill="#FCD116" p-id="5301"></path><path d="M63.274667 89.258667l30.634666 26.24 35.712-19.626667-15.957333 37.290667 29.482667 27.52-40.448-3.2z" fill="#FCD116" p-id="5302"></path><path d="M63.274667 89.258667l7.466666 39.68-34.858666 21.034666 40.277333 4.864 9.088 39.253334 17.450667-36.608z" fill="#FCD116" p-id="5303"></path></svg>