<?xml version="1.0" standalone="no"?><!DOCTYPE svg PUBLIC "-//W3C//DTD SVG 1.1//EN" "http://www.w3.org/Graphics/SVG/1.1/DTD/svg11.dtd"><svg t="1749005641287" class="icon" viewBox="0 0 1024 1024" version="1.1" xmlns="http://www.w3.org/2000/svg" p-id="4634" xmlns:xlink="http://www.w3.org/1999/xlink" width="32" height="32"><path d="M987.052408 217.464163v590.116572c0 9.508571-7.397878 15.840653-16.885551 15.840653H52.788245a15.548082 15.548082 0 0 1-15.840653-15.840653V217.464163c0-9.487673 7.397878-16.885551 15.840653-16.885551h917.378612c9.487673 0 16.885551 7.397878 16.885551 16.885551z" fill="#C8414B" p-id="4635"></path><path d="M668.233143 200.578612H350.479673v622.842776h317.75347V200.578612z" fill="#FFFFFF" p-id="4636"></path><path d="M354.701061 200.578612v622.842776H52.788245a15.548082 15.548082 0 0 1-15.840653-15.840653V217.464163c0-9.487673 7.397878-16.885551 15.840653-16.885551h301.912816z" fill="#002153" p-id="4637"></path><path d="M987.052408 217.464163v590.116572c0 9.508571-7.397878 15.840653-16.885551 15.840653H669.298939V200.578612h301.912816c8.442776 0 15.840653 7.397878 15.840653 16.885551z" fill="#CF0921" p-id="4638"></path></svg>