<?xml version="1.0" standalone="no"?><!DOCTYPE svg PUBLIC "-//W3C//DTD SVG 1.1//EN" "http://www.w3.org/Graphics/SVG/1.1/DTD/svg11.dtd"><svg t="1742267893134" class="icon" viewBox="0 0 1532 1024" version="1.1" xmlns="http://www.w3.org/2000/svg" p-id="1638" xmlns:xlink="http://www.w3.org/1999/xlink" width="299.21875" height="200"><path d="M0 1024V0h1532.913v1024z m1529.758-3.12z m-1523.38-3.258h1520.157V6.26H6.378z" fill="#231F20" p-id="1639"></path><path d="M3.206 766.44H1529.74v254.44H3.206z" fill="#000099" p-id="1640"></path><path d="M3.206 257.594H1529.74v508.829H3.206z" fill="#CC0000" p-id="1641"></path><path d="M3.206 3.172H1529.74v254.44H3.206z" fill="#000099" p-id="1642"></path><path d="M760.724 282.867l7.276-7.446 7.005 7.26-0.526 8.65-13.348-0.153-0.407-8.311z m-1.748 11.11h17.47v7.242h-17.47z m-3.544 10.126h24.526v7.683h-24.526z m-3.206 10.143c10.363 0.186 20.642 0.152 31.005 0v8.21c-10.295 0.22-20.574 0.135-30.853 0z" fill="#FFFFFF" p-id="1643"></path><path d="M744.881 319.911l6.785 5.224q15.995 0.102 32.125 0l6.87-5.292-5.784 5.733v8.48l-10.516-0.135-6.887-3.392-6.276 3.392-10.55 0.136v-8.48z m-5.173 11.703l9.058 5.038 9.702 0.034-3.444 5.445-7.564 0.814-0.679-5.954-7.073-5.377z m46.916 5.038l8.616-5.479-0.44 1.9-6.056 3.867-0.39 11.89-5.41-0.068 4.697-5.071-3.256-2.833-4.02 1.34-3.426-5.512 9.685-0.034z" fill="#FFFFFF" p-id="1644"></path><path d="M756.483 346.49l10.923-13.095 11.517 13.196 4.834-2.934-4.138 4.953L768 343.25l-12.144 5.36-4.139-4.919 4.766 2.799z m-250.386-7.463l0.713-1.306c3.986 8.04 7.836 16.249 9.244 25.187l-1.408 11.178-8.311-1.866-8.396 2.019-0.696-11.398a101.769 101.769 0 0 1 8.854-23.814z m511.627 21.218c1.917-7.904 5.479-15.265 8.837-22.592l2.51 4.952c3.902 8.481 7.735 17.64 7.141 27.258l-1.475 4.24-8.278-1.866-8.48 1.934z m-270.96-16.47l1.255-0.118 4.665 5.173h-5.818l-0.102-5.054z m-11.907 0.442l9.109 5.292 0.627 1.933h8.311l-2.646 3.647-7.039-1.476-0.56-2.391-7.802-7.005z m56.126 5.665l9.77-5.292-8.311 6.7-0.12 2.323-7.106 1.476-2.646-3.647h8.413v-1.56z" fill="#FFFFFF" p-id="1645"></path><path d="M751.53 358.668l14.638-12.365 5.377 0.814 12.331 11.636 6.785-2.46-5.97 4.834-2.274 0.832-7.225-0.153-7.752-2.833-7.598 2.9h-8.312l-6.988-5.58 6.988 2.375z m-8.43-0.254l4.58 3.68h-4.613l0.034-3.68z" fill="#FFFFFF" p-id="1646"></path><path d="M727.937 358.38l13.179 6.258 15.147 0.068-8.532 10.211-9.956-1.442V365.3l-9.838-6.92z m66.404 6.258l13.128-6.343-9.77 7.005v8.057l-10.024 1.56-8.616-10.21 15.282-0.069z" fill="#FFFFFF" p-id="1647"></path><path d="M787.641 361.992l4.682-3.578v3.68l-4.682-0.102z m-23.186 0.78l4.393-0.78a27.257 27.257 0 0 1 17.437 16.962l8.735-3.579-9.176 8.38h-8.193l-9.685-4.106-10.821 4.258-7.972-0.238-8.685-8.26 8.617 3.579a26.918 26.918 0 0 1 15.35-16.215z m-46.95 11.399l-0.797-4.24 12.569 6.513 5.886 3.545v2.866h7.75l5.327 3.613 4.885 0.085-0.441 0.814-8.905 10.363-14.841 0.068-0.187-17.165-11.245-6.462z m85.52 4.545l12.128-7.785 3.8-0.407-0.934 3.579-11.296 6.411-0.22 17.284-7.124-0.593-6.887 0.525-2.17-1.865-8.498-9.312 5.292-0.102 3.799-3.41 9.312-0.186v-2.934l2.799-1.205z m-301.575-2.713l7.26-0.78c7.005 1.78 14.773 4.359 18.945 10.77l8.193-1.832-8.48 4.325h-8.753l-12.297-10.872-11.873 10.838h-8.6l-8.396-4.274 7.938 1.696z m503.875 9.99c4.02-6.225 11.466-8.786 18.37-10.618l9.091 0.967 14.841 9.583 8.006-1.832-8.006 4.207-8.99 0.152-12.11-11.025-12.076 11.025h-8.905l-8.159-4.325z" fill="#FFFFFF" p-id="1648"></path><path d="M737.842 380.21v-3.495l3.8 3.46-3.8 0.034z m55.956-0.035l3.8-3.46v3.46h-3.8z m-288.956 0.933l6.446 2.018 5.037 8.787-10.058-3.054-9.448 3.054 8.023-10.805z m520.09-0.034l5.632 1.628 5.767 9.244-9.872-3.087-9.922 3.087 8.396-10.872z m-260.545 2.34l4.461-0.745c9.889 3.392 18.963 10.923 22.254 21.1l11.296-4.02-11.704 11.177-5.851-0.932-16.063-7.938-4.172 0.661-15.266 8.21h-4.63l-11.873-11.178 11.432 3.952c3.155-9.397 11.093-16.52 20.116-20.286z m-58.398 7.77l12.365 3.866 11.67 5.598 13.568 12.89 2.596 0.153-7.938 10.465-16.792-1.051-0.492 1.357c-0.306-8.396-0.272-16.741-0.306-25.086l-12.178-4.02z m118.018 0.423l5.445-0.475-2.562 4.173-12.127 3.901c0 8.48 0 16.961-0.288 25.239l-0.56-1.34-5.716-1.866-10.873 3.12-8.124-10.685 2.612-0.186 13.57-12.891 4.51-1.272z" fill="#FFFFFF" p-id="1649"></path><path d="M1005.766 404.362c4.478-7.225 12.705-10.957 20.693-13.111 7.497 2.002 14.977 5.479 19.71 11.771l0.848 7.565a39.724 39.724 0 0 0-20.456-10.838 37.587 37.587 0 0 0-20.676 10.99z m-520.226 0.526c4.274-6.785 11.703-11.025 19.302-13.111l8.311 1.696 14.35 11.585-0.526 5.512a37.095 37.095 0 0 0-20.727-10.804 38.214 38.214 0 0 0-20.048 10.838z" fill="#FFFFFF" p-id="1650"></path><path d="M485.574 415.76c4.325-6.784 11.703-10.872 19.268-12.958l6.666 1.051 15.537 11.365v6.445h-6.666l-12.144-10.33-2.273-0.474-13.247 10.804h-6.547z m521.21-1.848l17.725-11.076 7.31 1.153 15.215 11.364v6.31h-6.819l-12.009-10.296-2.272-0.508-13.196 10.584-6.853 0.22 0.9-7.751z m-267.262 14.383c4.359-12.077 15.943-20.235 27.884-23.627l15.639 7.26 12.823 16.4 13.874-4.358-14.315 12.823-12.942-0.22-15.045-6.938-14.315 7.039-13.196 0.119-13.79-12.01v-0.966z" fill="#FFFFFF" p-id="1651"></path><path d="M485.76 443.543c2.426-12.076 9.431-24 20.49-29.852l5.089 2.714a44.1 44.1 0 0 1 15.994 27.138h0.696l10.33-5.614-11.552 16.962-0.56-1.56c-4.07-8.482-10.55-16.25-19.268-20.355h-0.712c-9.125 4.326-15.842 12.637-19.71 21.728l-1.237-0.933-10.398-15.604 8.718 4.138z m44.168-29.784l0.56 1.594 3.867 6.564 13.45-3.765-13.67 11.11-5.072-0.085-7.073-4.715 7.531-0.153 0.407-10.55z m475.72 30.107c2.391-12.297 9.464-24.476 20.88-30.395 11.482 5.92 18.369 18.098 20.947 30.53l10.872-5.936-11.432 16.74c-4.105-9.311-10.991-17.775-20.354-22.253-9.464 4.325-16.249 12.857-20.354 22.254l-11.364-16.775z m-310.701-28.767l4.766-0.373 18.454 9.905v2.053l8.21 1.696 12.67 11.076h4.054l2.68 3.392-4.614 5.41c-9.668 0-19.302 0.12-28.97 0-0.102-7.157-0.102-14.28-0.22-21.473l-13.57-5.733z m141.187-0.526l4.343 0.594-3.393 5.902-13.569 5.733c-0.288 7.192 0.153 14.35-0.475 21.508-9.583 0-19.166 0.118-28.834 0l-4.885-5.818 3.002-2.952 5.088-1 13.01-11.398 6.784-0.238 0.12-2.239z" fill="#FFFFFF" p-id="1652"></path><path d="M479.536 421.917l3.24-6.157 0.83 8.549h6.955l-0.373 1.29-5.292 3.578-5.208 0.085-13.603-11.025 13.45 3.68z m197.262 45.169c0-16.063-0.492-32.04-0.22-48.12l10.957 12.348c7.31 0.187 14.603 0 21.761 0.153v15.91a109.69 109.69 0 0 0-20.828-9.702l-8.99-0.136-1.934 5.58 5.886 5.089 14.79 4.291c0 10.296 0 20.676 0.187 30.904 14.57 0.102 29.072 0 43.642 0.102l-6.378 10.702-12.517-3.952-5.852 2.51 3.392 3.139c-14.468 0.22-28.834 0.101-43.336 0.101 0-9.498-0.187-18.963-0.187-28.495z m182.099-48.154c0.22 9.21-0.153 18.454-0.119 27.63l-0.407 17.657c0 10.618-0.22 21.202-0.255 31.786-14.434 0-28.834 0.119-43.353-0.101l2.612-2.528-2.527-2.493-15.266 3.273-6.174-10.617c14.52-0.102 29.021 0 43.557-0.102 0.102-10.177 0.187-20.608 0.306-30.904l15.604-4.766 4.699-4.173-2.646-6.377-7.379 0.407c-7.75 2.086-14.756 6.225-21.846 9.804l0.271-15.91c7.345-0.12 14.57 0 22.05-0.153z m139.61 7.752l4.427-7.718 0.797 5.343 7.005 0.102-6.564 9.464h-5.14l-13.874-10.906 13.349 3.715z m51.546-6.819l3.579 6.87 13.45-3.766-13.857 10.872-5.258 0.272-5.784-9.702 7.005-0.102 0.865-4.444zM525.722 430.11l6.767 5.478 0.12 0.798-2.867 1.747-0.458 0.882-3.562-8.905z m-45.067 6.242l6.36-5.377-3.12 8.09-0.475-0.865-2.765-1.848z" fill="#FFFFFF" p-id="1653"></path><path d="M736.977 462.167c4.376-13.891 16.216-24.849 29.904-29.615l4.952 1.255c12.043 5.225 22.39 15.266 26.308 27.953l2.052-0.814 13.722-3.884-16.215 16.334h-13.315l-3.121-1.306-12.077-6.073h-3.24l-13.569 7.243h-14.57l-15.74-15.96 0.119-0.781z m-231.982-25.815l4.512 0.814c9.566 6.48 15.825 17.402 17.877 28.699l10.923-5.97-11.483 16.859-1.696-0.119a49.324 49.324 0 0 0-16.452-20.913l-3.274-0.594c-8.159 4.919-13.57 13.111-17.59 21.473l-3.239-2.239-9.736-14.468 9.397 4.699 1.527 0.712c2.425-11.517 8.904-22.813 19.234-28.953z m514.493 3.9l6.971-4.494 12.823 11.059 7.667 18.454h1.204l10.177-5.41-11.364 16.74h-2.137l-0.441-1.696-13.298-17.351-4.546-2.8-5.665 3.732-13.128 18.268-1.696-0.119-11.33-16.673 10.872 6.123 0.526-3.138a46.95 46.95 0 0 1 13.365-22.694z" fill="#FFFFFF" p-id="1654"></path><path d="M679.885 440.151l10.177 0.814a122.123 122.123 0 0 1 20.167 9.906c9.77 0.152 19.455 0 29.174 0.118l-3.732 6.972-11.873-3.986-6.496 2.646 19.336 19.455h4.41l3.172 4.698h-43.269c0.085-10.262-0.407-20.354-0.44-30.53l-18.658-5.92z m165.324 0.848l10.33-0.746-4.546 5.478-16.097 4.326c-0.526 10.33-0.407 20.455-0.526 30.717h-43.676l3.274-4.63h4.851l19.082-19.455-6.259-2.646-11.771 3.985-3.783-7.055c9.736-0.12 19.455 0 29.157-0.12A119.375 119.375 0 0 1 845.21 441z m-306.817 1.611l4.529 8.634 18.2-5.055-11.67 10.059-9.091 2.154-11.806 1.56-0.458-2.46 10.296-14.892z m-67.388 8.65l4.02-8.14 9.838 14.128 0.186 1.238a99.428 99.428 0 0 1-25.154-6.903l-7.124-5.394z m519.073 4.767l6.31-10.855 7.853 11.517-0.068 4.104-8.311-3.663-4.512 2.764 5.14 7.463-6.073-0.424-18.674-16.062 18.335 5.156z m66.014-9.99l1.527 1.34 4.393 8.565 18.64-4.953-19.268 16.13-4.953 0.238 5.208-7.463-4.461-2.646-8.311 3.426-1.052-3.12 8.277-11.517z m-603.88 3.952c5.851 4.427 13.043 6.666 20.065 8.6l-0.61 1.526 12.229 17.894 2.9 1.56-3.019 9.092-0.78 8.48-8.786-1.695-3.138 1.984 12.365 13.417H451.77l0.22-11.873c0.119-16.385 0.119-32.736 0.22-48.985z" fill="#FFFFFF" p-id="1655"></path><path d="M966.89 449.989c7.548 6.784 15.266 13.23 22.882 19.93l8.582 0.152 6.259 9.244h2.018l-0.407 1.306-3.29 16.436-7.786-1.9-4.02 2.24 12.45 13.382H966.45v-19.93c0.56-13.654 0.373-27.223 0.44-40.86z m-426.09 11.16c9.109-1.696 18.862-3.392 26.206-9.549l-0.152 5.97c-0.56 7.175-0.306 14.452-0.594 21.643-0.628 7.497-0.441 15.028-0.713 22.508L565.14 511h-35.619l11.687-12.789 0.339-1.255h-11.67l-3.646-17.402 2.018-0.153z m521.397 8.888l19.269-16.656c-0.12 9.566-0.22 19.03-0.78 28.495 0 9.702-0.628 19.32-0.832 29.072-10.177 0-20.354 0.085-30.53-0.17l12.415-13.416-11.873-0.305-3.51-17.487 1.899-0.441 6.293-9.058z m-53.971 12.67c3.545-9.837 9.244-19.454 18.233-25.187 8.481 5.58 14.13 14.383 17.623 23.746l3.24 13.162a38.062 38.062 0 0 0-20.116-17.521l-3.138 0.593a37.4 37.4 0 0 0-18.437 16.962z m-520.193 1.052c3.494-10.177 9.092-20.065 18.183-26.019h0.713c9.006 5.886 14.603 15.74 18.08 25.714l2.68 11.11a39.011 39.011 0 0 0-20.353-17.742l-4.258 1.12a38.486 38.486 0 0 0-17.47 16.469z m274.064-13.043l5.75-2.171a49.188 49.188 0 0 1 23.255 16.18l7.039 13.4 15.774-4.986-15.995 16.402c-20.116 0.186-40.25 0.152-60.366 0l-16.062-16.538 14.722 4.732 0.967 0.289c3.68-12.196 13.484-21.948 24.916-27.308z m-17.911 5.427l4.698-0.067-2.696 2.527-2.002-2.46z m42.268 0h4.36l-1.646 2.307-2.714-2.307z" fill="#FFFFFF" p-id="1656"></path><path d="M503.587 480.621l4.105-0.865a33.635 33.635 0 0 1 19.743 22.372l10.482-4.444-10.618 11.874c-13.79 0.186-27.613 0.152-41.369 0l-10.584-11.874 10.177 4.478a34.737 34.737 0 0 1 18.064-21.54z m501.891 21.541a33.618 33.618 0 0 1 20.981-22.694 33.923 33.923 0 0 1 20.948 22.694l10.431-4.393-8.65 9.533-3.579 2.306c-13.298 0.085-26.528 0.12-39.809 0l-10.753-11.873z m-577.98-15.095c7.31 0.118 14.587 0 21.812 0.118v22.423c-7.191 0.12-14.468 0-21.778 0.085-0.034-7.565-0.051-15.062-0.034-22.626z m141.035 0.118q52.987 0 106.026-0.118l0.119 11.584 2.985 0.085 11.992 10.872q-60.892 0.17-121.75 0c0.034-7.48 0.628-14.977 0.628-22.423z m292.331 0c34.33-0.118 68.694 0 102.906-0.118l0.373 3.765-0.373 18.776c-39.317 0-78.634 0.12-118.035 0l12.042-10.804 2.935-0.085z m221.721 22.423c0-7.48 0.594-14.977 0.662-22.423 8.277 0 16.486-0.118 24.645 0v22.423c-8.43 0.085-16.894 0.085-25.307 0z" fill="#FFFFFF" p-id="1657"></path><path d="M680.377 498.736q21.388-0.119 42.794 0l8.328 8.48c-13.18 0.103-26.375 0.103-39.69 0z m131.91 0c14.23 0 28.512-0.085 42.776 0l-11.432 8.48c-13.314 0.103-26.527 0-39.774 0z m-237.648 13.485H695.76c0 7.039 0.119 14.01 0 20.947H574.639z m169.649 0.033l7.124-0.034v10.432l-7.124-10.398z m9.736-0.034l12.738 0.458 14.502-0.458c0.119 78.753 0 157.42 0.119 236.139l-13.35 0.186-14.01-0.186q0.153-118.086 0-236.139z m29.954 0l6.716 0.034-6.716 9.397v-9.43z m10.075 0.034h5.699c0.119 34.772 0 69.543 0 104.212h-2.73v-56.652h-13.078c0-11.143-0.102-22.287 0-33.498z m42.471 0h118.833v20.948h-118.9c0.034-6.971 0.067-13.942 0.067-20.948z m121.631 0.187l5.394 0.153 0.865 0.814h42.964v102.854h-1.696v-56.566h-15.707l-0.22 11.873 0.22 13.569v4.919c-0.475 7.565 0.34 15.01-0.22 22.474l0.22 3.867c-10.652 0.119-21.27 0-31.904 0 0.084-34.703-0.153-69.356 0.084-103.957z m124.803 0.237l2.714-0.152 0.865 0.373q-0.187 51.648 0 103.465c-7.31 0.119-14.468 0-21.762 0v-56.533h-15.774v56.414l-1.866 0.153V513.543c10.822 0 21.542 0 32.363 0.12z m-649.218-0.457h8.345v20.947h-8.345z m10.94 104.211V512.254h4.138l0.713 1.154c12.365 0 24.865 0 37.23 0.085v102.854h-2.018c0-18.895 0.119-37.79 0-56.651h-15.639v56.651c-8.09 0.153-16.215 0.085-24.424 0.085z m123.14-104.178h4.105c0.119 34.738 0 69.543 0.119 104.178h-28.038v-56.651H528.25v56.651h-1.9v-102.94c13.824 0 27.648 0.12 41.437 0.12z m130.604 104.178V512.254h34.584v104.178h-2.578v-56.651h-15.69v56.651z m37.213 0V512.221h5.411l10.398 15.061v32.499H738.47c-0.102 18.81-0.102 37.756 0 56.566z m66.76 0.068V512.254h31.448V616.5h-12.331c0.118-18.895 0.118-37.79 0.118-56.652h-15.808v56.567z m286.82-104.28h10.177v20.948h-10.177c0-6.937-0.119-13.908 0-20.948z m-599.844 1.239h3.393v121.817l-3.393 0.119z m6.157 0h22.05v121.783c-7.344 0.119-14.654 0-22.05 0.119 0-40.623 0.068-81.313 0-121.902z m514.46 0.034h3.392v121.936l-3.392-0.119z m6.106 121.783V513.493h22.22v121.783c-7.464 0.119-14.842 0.119-22.22 0z m-495.87 0V513.493h3.477v121.902z m520.719 0.119V513.493h3.544v121.783zM437.234 535.78h4.85v80.584h-4.766q0-40.317-0.084-80.584z m137.405 0H695.76q0 40.25 0.119 80.584h-7.633v-56.651h-15.74v56.651h-7.887v-56.583h-15.74v56.651h-5.09v-56.651h-15.977v56.617h-5.088v-56.651h-15.673v56.566h-7.972v-56.651h-15.689v56.651h-8.803z m261.885 0h118.9q-0.101 40.25 0 80.584h-5.512v-56.651h-15.655v56.566h-7.972v-56.651h-15.69v56.651h-5.292v-56.651H889.58v56.651h-5.088v-56.651H868.48c0 18.861 0.102 37.79 0 56.72h-7.65c-0.118-18.862 0-37.791 0-56.652h-15.774v52.665l-0.322 4.173-8.243-0.187q0.05-40.3 0.033-80.567z m252.405 0.153l6.784-0.085v80.584h-6.784v-80.5z" fill="#FFFFFF" p-id="1658"></path><path d="M471.784 562.46h10.364v53.853h-10.364z m59.179 0h10.465v53.853h-10.397z m78.82 0h10.431c0 17.895-0.135 35.857 0 53.853h-10.43z m20.727 0h10.618v53.853H630.51c0.068-17.996 0-35.958 0-53.853z m21.066 53.853V562.46h10.177v53.853z m23.577-53.853H685.6v53.887h-10.448z m42.15 0h10.396v53.887h-10.397z m23.745 0h10.398v53.853h-10.398q0.119-26.985 0-53.853z m42.93 0h10.397v53.853H783.91c0.068-17.996 0-35.958 0.068-53.853z m24.526 0h10.448v53.853h-10.448z m39.283 0h10.296v53.853h-10.28l-0.237-1.696 0.153-12.263V562.46z m23.373 0h10.669v53.853H871.21z m21.05 0h10.363v53.853h-10.364z m44.659 0h10.312v53.853H936.87l-0.306-20.15 0.255-15.028z m55.48 0h10.585v53.853H992.35z m59.45 0h10.398c-0.118 17.895-0.118 35.857-0.118 53.853h-10.28V562.46z m-465.711 53.853V562.46h10.431c0 17.895-0.119 35.857 0 53.853zM913.19 562.46h10.432v53.853H913.19z m-436.487 56.567l7.073 0.119-2.493 16.13h-8.719l4.14-16.249z m52.445 0.119l6.106-0.119 4.105 16.25h-7.463l-2.748-16.131z m-92.695 0.407l5.733-0.407-8.277 16.13h-4.359l6.903-15.723z m0.441 15.723l8.38-16.249c9.48 0.119 18.912 0 28.325 0.119l-3.68 16.13c-11.076 0-22.101 0.119-33.025 0z m49.087-11.839l0.61-4.58 0.17 16.42-2.866 0.118 2.086-11.958z m52.241-4.291c11.636-0.119 23.272 0 34.822-0.119l8.481 16.25c-13.162 0.118-26.24 0-39.47 0z m37.91 0q59.992-0.17 120.02 0l-8.77 16.13c-34.28 0-68.61 0.119-102.973 0z m114.354 16.13l8.786-16.249c10.397 0.119 20.863 0 31.277 0.119l-4.444 16.13c-11.89 0-23.695 0.119-35.62 0z m39.605-4.308l3.172-11.822 10.703 0.186-2.8 15.944H728.82l1.272-4.308z m16.554-11.822l4.767-0.119v16.368l-7.633-0.119 2.866-16.13z m37.265 16.249l0.068-16.368 3.205 0.238 2.646 16.011-5.92 0.119z m6.072-16.25h9.651l4.393 16.131-11.534-0.034-2.51-16.096z m12.382 0c10.465-0.118 20.897 0 31.328-0.118l8.87 16.25a1799.7 1799.7 0 0 1-35.805 0z m34.466 0q59.246-0.169 118.595 0l-8.244 16.131c-33.923 0-67.846 0.119-101.633 0z m121.648 0c11.483-0.118 22.88 0 34.364-0.118l0.593 0.763-4.172 15.486q-19.523 0.187-39.012 0z m37.756-0.118l8.345 0.119-2.748 16.249-9.803-0.119 4.206-16.249z m8.498 16.368l2.374-16.504 0.187 16.504h-2.561z m45.134-16.25h9.465l4.325 16.131h-11.076l-2.714-16.13z m12.213-0.118c8.124 0.119 16.249 0 24.305 0.119l8.345 16.13q-14.196 0.187-28.427 0z m27.358 0.119h7.158l6.785 16.13h-5.665l-8.278-16.13z m-42.25 16.249l0.135-15.944 2.612 15.825-2.748 0.119z m-520.583-15.231l2.578 15.112h-2.799l0.22-15.112z m482.589 17.81h3.51v110.418h-3.51z m31.022-0.035l3.494 1.035v109.385h-3.494c0.034-36.824 0-73.495 0-110.42z m-632.986 0.034h79.532v4.173c-26.561 0.22-53.021 0-79.566 0z m82.144 110.42c0.12-36.858 0-73.596 0-110.42h3.393v110.25z m6.157-0.034V637.973h21.949V748.36c-7.107 0.305-14.587 0.305-21.949 0z m24.696-110.386h3.477c0 36.891 0.102 73.715 0 110.606h-3.392c-0.085-36.891-0.034-73.715-0.085-110.606z m6.225 0h224.96v4.173q-112.488 0.101-225.028 0z m257.459 4.173v-4.173h222.569v4.173q-111.217 0.101-222.57 0z m231.406-4.173h22.236v110.25l-11.652 0.254-10.584-0.254c0.101-36.688 0-73.359 0-110.25z m31.04 4.173v-4.173h76.547v4.173q-38.232 0.101-76.548 0z m-262.378 2.747h222.5V660.6l-20.133 0.102c-32.413-0.102-64.759-0.102-97.223-0.102-34.991 0-70.153 0.102-105.161 0z m-387.672 0h90.455V660.6c-10.024 0.135-20.082 0-30.14 0-20.134 0-40.267 0.102-60.383 0z m130.145 0h224.96V660.6c-27.833 0.102-55.531 0-83.365 0H560.629c-8.312 0.102-16.81 0-25.07 0h-9.176z m519.904 0h87.59l0.186 15.707c-9.21 0.102-18.301 0-27.427 0-8.175 0-16.3 0-24.424 0.102s-16.317-0.102-24.476-0.102h-11.449z m-669.165 18.42h106.043l3.613 0.255v20.167H377.241v-20.354z m149.193 0.153c33.686-0.305 67.304 0 100.887-0.152h124.142v20.353q-112.523 0.12-225.096 0z m257.595-0.152h222.5v20.353H783.91z m262.377 20.421V663.28h109.572v20.353c-36.485 0.187-72.969 0.102-109.572 0.102z m-696.66 2.646c45.644 0.119 91.372 0 137.066 0.153v29.632q-68.541 0.101-137.184 0c0-9.923 0-19.828 0.118-29.785z m176.756 0h224.96v29.785H526.384c0.068-9.923 0-19.828 0.068-29.785z m257.527 0h222.5v29.785h-222.5c0-9.923-0.068-19.828 0-29.785z m262.377 0c45.695 0.119 91.304 0 136.964 0v29.785h-136.964V686.38z m-723.95 32.583H486.76v29.208c-54.82 0.153-109.605 0-164.526 0 0.17-9.651 0.068-19.455 0.17-29.208z m204.046 0h224.96v29.293H526.384c0.068-9.736 0-19.54 0.068-29.293z m257.527 0h222.5v29.293h-222.5c0-9.736-0.068-19.54 0-29.293z m262.377 0h164.205v29.293q-82.043 0.102-164.239 0c0.034-9.736 0.034-19.54 0.034-29.293z" fill="#FFFFFF" p-id="1659"></path></svg>