<?xml version="1.0" standalone="no"?><!DOCTYPE svg PUBLIC "-//W3C//DTD SVG 1.1//EN" "http://www.w3.org/Graphics/SVG/1.1/DTD/svg11.dtd"><svg t="1729823522459" class="icon" viewBox="0 0 1536 1024" version="1.1" xmlns="http://www.w3.org/2000/svg" p-id="10080" xmlns:xlink="http://www.w3.org/1999/xlink" width="48" height="32"><path d="M0 0h1536v1024H0z" fill="#CC0001" p-id="10081"></path><path d="M0 950.9376h1536v73.0112H0z m0-146.0224h1536v73.0112H0z m0-146.0224h1536v73.0112H0z m0-146.0224h1536v73.0112H0z m0-146.0224h1536v73.0112H0z m0-146.0224h1536v72.96H0z m0-145.9712h1536v73.0112H0z" fill="#FFFFFF" p-id="10082"></path><path d="M0 1.9968h791.6544v582.8608H0z" fill="#010066" p-id="10083"></path><path d="M318.0032 105.216a188.2112 188.2112 0 1 0 102.4 346.4704 166.8608 166.8608 0 1 1 3.328-314.2656 188.3648 188.3648 0 0 0-105.728-32.2048z" fill="#FFCC00" p-id="10084"></path><path d="M687.8208 391.424l-79.5136-41.5744 23.5008 84.8896-53.1968-71.0144-16.5888 86.4256-16.3328-86.528-53.4016 70.912 23.808-84.8896-79.7184 41.3184 59.2384-66.56-90.1632 3.4304 82.8416-34.7136-82.7904-35.0208 90.1632 3.6864-58.9824-66.56 79.5136 41.5232-23.5008-84.8896 53.1968 71.0144 16.5888-86.4768 16.2816 86.528 53.4016-70.8608-23.7568 84.8896 79.6672-41.2672-59.1872 66.56 90.1632-3.4304-82.8416 34.7648 82.7904 34.9696-90.1632-3.7376z" fill="#FFCC00" p-id="10085"></path></svg>