<?xml version="1.0" standalone="no"?><!DOCTYPE svg PUBLIC "-//W3C//DTD SVG 1.1//EN" "http://www.w3.org/Graphics/SVG/1.1/DTD/svg11.dtd"><svg t="1738735737873" class="icon" viewBox="0 0 1541 1024" version="1.1" xmlns="http://www.w3.org/2000/svg" p-id="7053" xmlns:xlink="http://www.w3.org/1999/xlink" width="96.3125" height="64"><path d="M6.272 1017.74h1513.467V11.268H6.272V1017.74z m1515.97 3.756v-3.755 3.755zM0.012 1024V5.007h1525.986V1024H0.012z" fill="#353636" p-id="7054"></path><path d="M2.516 8.763h1519.726v1012.733H2.516z" fill="#009A4C" p-id="7055"></path><path d="M155.24 514.504l607.14 388.068 607.138-388.068L762.38 126.435z" fill="#F5C800" p-id="7056"></path><path d="M762.38 254.122c143.96 0 260.38 116.42 260.38 260.382S906.34 774.885 762.38 774.885s-260.382-116.42-260.382-260.381 116.42-260.382 260.381-260.382z" fill="#383782" p-id="7057"></path><path d="M1021.509 540.792c-113.917-91.384-259.13-142.709-415.61-137.702-27.54 1.252-55.08 3.756-81.368 8.763-5.008 12.519-10.015 26.289-13.77 40.059 31.295-6.26 63.843-10.015 96.39-11.267 155.228-5.007 297.937 48.822 406.847 141.458 3.755-12.519 6.259-27.54 7.51-41.31z" fill="#FFFFFF" p-id="7058"></path><path d="M535.797 428.127l2.504 6.26 5.007 1.251 5.008-2.504 1.251-6.259-2.503-6.259-5.008-1.252-5.007 2.504-1.252 6.26z m-5.007 1.252v-6.26l1.252-3.755 2.503-2.503 5.008-1.252 8.763 2.503 5.007 8.763-2.504 10.015-8.763 5.007-6.259-3.755-5.007-8.763z m40.059-7.511h3.755l5.007-1.252 1.252-1.252v-2.503l-1.252-2.504h-10.014l1.252 7.511z m-3.756 15.022l-2.504-25.037 11.267-1.252h6.26l2.503 2.504 1.252 3.756-1.252 5.007-5.008 2.504 2.504 2.503 3.756 3.756 3.755 5.007h-6.26l-3.755-5.007-2.503-3.756-2.504-1.252h-3.755l1.251 10.015-5.007 1.252z m35.051-23.785v16.274h6.26l2.503-1.252 1.252-2.504V415.61l-1.252-2.504h-8.763z m-5.007-3.755h15.022l3.756 2.503 2.503 3.756 1.252 6.259-1.252 5.007-2.503 5.008-3.756 2.503-5.007 1.252h-10.015V409.35z m32.548 23.784v-25.036h18.777v5.007h-13.77v5.007h12.518v5.008l-12.518-1.252v7.511h13.77v5.007z m28.792 1.252l2.504-25.036h7.51l3.756 17.525 5.007-16.274h7.511l-1.251 25.037h-5.008l1.252-20.03-6.26 20.03-5.006-1.252-3.756-20.029-1.252 20.03z m51.325 5.008l3.756-25.037 18.777 2.504-1.252 3.755-12.518-1.252-1.252 5.008 12.518 2.503-1.251 3.756-12.519-2.504-1.252 7.511 15.022 2.504-1.251 3.755z m53.829-12.519l-1.252 7.511h6.26l2.503-1.252 1.252-1.251v-2.504l-1.252-1.252-3.756-1.252h-3.755z m-10.015 20.03l6.26-25.037 7.51 1.252 6.26 1.252 2.503 3.755v5.007l-1.252 5.008-2.503 2.503h-2.504l-5.007-1.251-3.756-1.252-2.503 8.763h-5.008z m37.555-6.26l3.756 1.252 5.007 1.252h1.252l1.252-1.252v-2.503l-1.252-1.252-3.756-1.252-3.755-1.252-2.504 5.007z m-8.763 12.519l7.511-25.037 10.015 2.504 5.007 2.503 2.504 3.756v3.755l-2.504 3.756-5.007 1.252 2.504 2.503 1.252 5.008 1.251 6.259-6.259-1.252-2.503-6.259-1.252-3.756-1.252-1.251-2.504-1.252h-1.252l-2.503 10.014-5.008-2.503z m38.807-1.252v6.26l3.756 3.755h5.007l3.756-5.008v-6.259l-3.756-3.755h-5.007l-3.756 5.007z m-5.007-1.252l3.755-6.259 3.756-2.504 3.755-1.252 5.008 1.252 7.51 6.26v10.014l-6.258 7.511h-10.015l-7.511-6.259v-8.763z m42.562 18.778l1.252-3.756 10.015 3.756-3.756 10.014h-5.007l-6.26-1.252-5.007-3.755-2.503-6.26 1.252-6.258 3.755-6.26 6.26-2.503 6.258 1.252 6.26 5.007 1.251 6.26-5.007-1.253-1.252-3.755-2.503-2.504h-6.26l-3.755 5.007-1.252 7.511 3.756 3.756 3.755 1.252 2.504-1.252 1.252-2.504z m27.54 6.259l3.756 1.252 3.756 1.251h1.251l1.252-1.251v-2.504l-1.252-1.252-3.755-1.252-3.756-1.252-1.251 5.008z m-11.266 11.266l11.267-22.533 10.014 5.008 5.008 3.755 1.251 2.504-1.251 3.755-3.756 3.756h-5.007l1.252 2.503 1.251 5.008v6.259l-5.007-2.504-1.252-6.259-1.252-5.007-1.251-1.252-2.504-1.252h-1.252l-5.007 10.015-2.504-3.756z m28.792 13.77l11.267-22.533 17.526 8.763-2.504 3.756-12.519-6.26-2.503 5.008 11.266 6.26-2.503 3.755-11.267-6.26-2.504 6.26 12.519 6.259-2.504 3.755z m28.793 6.26l3.755 2.503v3.756l2.504 2.504 3.755 1.251 2.504-1.251v-1.252L943.895 512l-2.504-2.504-3.755-5.007 1.252-6.26 2.503-2.503h3.756l5.007 1.252 5.008 6.26-1.252 6.258-3.756-2.503v-3.756l-2.503-2.504-3.756-1.251-1.252 1.251v1.252l3.756 3.756 3.755 5.007v3.756l-1.252 3.755-2.503 3.756h-5.008l-5.007-2.504-5.007-5.007z m25.036 16.274l5.008 1.251-1.252 5.008 2.503 2.503 3.756 1.252 2.504-1.252v-3.755l-3.756-2.504-2.504-6.259v-5.007L967.68 512h3.755l5.008 1.252 3.755 6.259v6.26l-5.007-2.504v-3.756l-1.252-2.504-3.755-1.251-1.252 1.251v1.252l2.503 5.008 3.756 3.755v3.756l-1.252 3.755-2.504 3.756h-5.007l-5.007-2.504-5.008-6.26z m31.296 16.273l-2.504 6.26 3.756 5.007 5.007 1.252 5.008-3.756 2.503-6.259-2.503-5.007-5.008-1.252-6.259 3.755z m-3.755-3.755l5.007-5.007 3.755-1.252h3.756l5.007 2.503 5.008 8.763-2.504 10.015-8.763 6.259-8.763-2.504-5.007-8.762 2.504-10.015z" fill="#009A4C" p-id="7059"></path><path d="M845 415.609l2.504 7.51h7.51l-6.258 5.008 2.503 7.511-6.259-5.007-6.259 5.007 2.504-7.51-6.26-5.008h7.511z m-81.37 210.308l2.505 7.51h7.51l-6.259 5.008 2.504 7.511-6.26-5.007-6.258 5.007 2.503-7.51-6.259-5.008h7.511z m184.02-26.289l2.504 8.763h8.763l-7.511 3.756 2.504 7.51-6.26-5.007-6.259 5.008 2.504-7.511-6.26-3.756h7.512z m36.304 6.26l2.503 5.007h5.008l-5.008 3.755 2.504 3.756-5.007-2.504-3.756 2.504 1.252-3.756-3.755-3.755h5.007z m-25.037 18.777l1.252 7.511h7.51l-6.258 3.756 2.503 6.259-5.007-3.756-6.26 3.756 2.505-6.26-5.008-3.755h6.26z m-16.274 21.281l1.252 7.511h7.511l-5.007 3.756 1.252 6.259-5.008-3.756-6.259 3.756 2.504-6.26-5.008-3.755h6.26z m-21.281 16.274l1.252 5.007h5.007l-3.755 2.504 1.251 5.007-3.755-2.503-3.756 2.503 1.252-5.007-3.755-2.504h5.007z m-27.54-5.007l2.503 5.007h5.008l-5.008 2.504 2.504 5.007-5.007-3.755-3.756 3.755 1.252-5.007-3.756-2.504h5.008z m-28.793 8.763l1.252 5.007h5.008l-3.756 3.755 1.252 5.008-3.756-3.756-5.007 3.756 1.252-5.008-3.756-3.755h5.008z m30.044 42.562l1.252 5.007h5.008l-3.756 3.756 1.252 3.755-3.756-2.503-5.007 2.503 2.504-3.755-5.008-3.756h5.008z m-53.828-22.533l2.503 6.26h7.511L845 697.27l2.504 6.26-6.26-3.756-5.007 3.756 1.252-6.26-5.007-5.007h6.259z m-20.03-27.54l1.252 5.007h6.26l-5.008 3.755 1.252 5.008-3.756-2.504-5.007 2.504 2.504-5.008-5.008-3.755h6.26z m73.858 21.28l2.504 7.512h6.26l-5.008 3.755 2.504 6.26-6.26-3.756-5.007 3.755 2.504-6.259-6.26-3.755h7.512z m-131.442 42.563v2.504h2.504l-1.252 1.252v2.503l-1.252-1.252-2.504 1.252 1.252-2.503-2.504-1.252h2.504z m68.85-227.834l1.253 6.26h6.259l-5.008 2.503 1.252 6.26-3.755-3.756-5.008 3.755 1.252-6.259-3.755-2.504h5.007z m-68.85 57.585l1.252 6.259h6.259l-5.007 3.755 2.503 5.008-5.007-3.756-5.007 3.756 1.251-5.008-3.755-3.755h5.007z m30.044 23.785l2.504 6.259h6.259l-5.008 3.755 1.252 6.26-5.007-3.756-5.007 3.755 2.503-6.259-6.259-3.755h7.511z m-56.333 1.251l1.252 5.008h5.008l-3.756 2.503 1.252 5.008-3.756-3.756-5.007 3.756 2.504-5.008-5.008-2.503h5.008z m12.519 21.282v3.755h3.755l-2.503 1.252 1.251 3.755-2.503-2.503-3.756 2.503 1.252-3.755-2.504-1.252h3.756zM547.064 460.675l2.503 7.51h7.511l-6.259 5.008 2.504 7.511-6.26-5.007-6.258 5.007 2.503-7.51-6.259-5.008h7.511z m113.917 60.088l2.503 5.007h6.26l-5.008 3.756 1.252 6.259-5.007-3.756-5.008 3.756 2.504-6.26-6.26-3.755h7.512z m-90.132 51.325l2.503 7.511h7.511l-6.259 3.756 2.504 7.51-6.26-5.007-6.259 5.008 2.504-7.511-6.26-3.756h7.512z m25.036-11.266l1.252 3.755h3.756l-2.504 2.504 1.252 3.755-3.756-2.503-2.503 2.503 1.251-3.755-3.755-2.504h3.755z m30.044 38.806l2.504 6.26h6.26l-5.008 3.755 1.252 6.26-5.008-3.756-5.007 3.755 1.252-6.259-5.008-3.755h6.26z m31.296 48.822l2.504 6.259h7.51l-6.258 5.007 2.503 7.511-6.259-5.007-6.26 5.007 2.505-7.51-6.26-5.008h7.511z m-40.059-22.533l2.504 6.259h6.26l-5.008 3.756 2.504 6.259-6.26-3.756-5.007 3.756 2.504-6.26-6.26-3.755h7.512z m-78.865-27.54l1.252 5.007h5.007l-3.755 2.504 1.251 5.007-3.755-2.504-3.756 2.504 1.252-5.007-3.755-2.504h5.007z" fill="#FFFFFF" p-id="7060"></path></svg>