<?xml version="1.0" standalone="no"?><!DOCTYPE svg PUBLIC "-//W3C//DTD SVG 1.1//EN" "http://www.w3.org/Graphics/SVG/1.1/DTD/svg11.dtd"><svg t="1738735772002" class="icon" viewBox="0 0 1633 1024" version="1.1" xmlns="http://www.w3.org/2000/svg" p-id="8196" xmlns:xlink="http://www.w3.org/1999/xlink" width="102.0625" height="64"><path d="M0 0.135854h1633.645108v1023.066003H0z" fill="#015729" p-id="8197"></path><path d="M0 0h480.583748v1024H0zM1099.008425 724.492736a294.208955 294.208955 0 0 1-184.099238-523.700431A321.906202 321.906202 0 0 0 709.837479 500.775058c0 177.731078 144.073234 321.804312 321.804312 321.804312A321.940166 321.940166 0 0 0 1336.464345 603.990182a293.784411 293.784411 0 0 1-237.45592 120.502554z" fill="#FFFFFF" p-id="8198"></path><path d="M1063.007098 305.756551l57.177579 41.214726 56.854925-41.656252-21.515887 67.128889 57.177579 41.197744-70.474296 0.271709-21.532869 67.111907-22.02534-66.94209-70.491277 0.271708 56.871908-41.63927-22.042322-66.959071z" fill="#FFFFFF" p-id="8199"></path></svg>