<?xml version="1.0" standalone="no"?><!DOCTYPE svg PUBLIC "-//W3C//DTD SVG 1.1//EN" "http://www.w3.org/Graphics/SVG/1.1/DTD/svg11.dtd"><svg t="1729476596305" class="icon" viewBox="0 0 1536 1024" version="1.1" xmlns="http://www.w3.org/2000/svg" p-id="4297" xmlns:xlink="http://www.w3.org/1999/xlink" width="72" height="48"><path d="M0 0h1536v1024H0z" fill="#DE2910" p-id="4298"></path><path d="M761.6 505.6l6.4 12.8-6.4 6.4-6.4-6.4z" fill="#FF0000" p-id="4299"></path><path d="M761.6 518.4c-83.2-38.4-128-153.6-89.6-243.2 19.2-51.2 89.6-115.2 179.2-96-32 19.2-57.6 44.8-32 76.8 25.6 38.4 12.8 96-32 121.6s-76.8 89.6-25.6 140.8z" fill="#FFFFFF" p-id="4300"></path><path d="M761.6 518.4c-19.2-12.8-44.8-32-51.2-96v-19.2c0-51.2 25.6-76.8 25.6-76.8v6.4s-6.4 6.4-12.8 19.2-12.8 32-12.8 57.6v19.2c6.4 57.6 32 70.4 51.2 89.6z m-25.6-249.6l12.8 19.2 19.2-12.8-6.4 19.2 12.8 12.8h-19.2l-6.4 19.2-6.4-19.2h-19.2l19.2-12.8-6.4-25.6z" fill="#FF0000" p-id="4301"></path><path d="M761.6 518.4c6.4-96 96-172.8 185.6-166.4 51.2 0 134.4 57.6 140.8 153.6-25.6-32-57.6-44.8-83.2-12.8-25.6 38.4-83.2 44.8-121.6 0-25.6-25.6-96-38.4-121.6 25.6z" fill="#FFFFFF" p-id="4302"></path><path d="M761.6 518.4c6.4-25.6 12.8-57.6 70.4-83.2l19.2-6.4c44.8-12.8 76.8 0 76.8 0s-6.4-6.4-19.2-6.4-32 0-51.2 6.4l-25.6 6.4c-57.6 25.6-57.6 57.6-70.4 83.2z m211.2-102.4l-6.4 19.2 12.8 12.8H960l-6.4 19.2-6.4-19.2h-19.2l19.2-12.8-6.4-19.2 12.8 12.8 19.2-12.8z" fill="#FF0000" p-id="4303"></path><path d="M761.6 518.4c89.6-25.6 185.6 44.8 204.8 140.8 12.8 51.2-12.8 153.6-96 185.6 19.2-38.4 25.6-70.4-12.8-83.2-38.4-19.2-64-70.4-38.4-121.6 19.2-38.4 6.4-115.2-57.6-121.6z" fill="#FFFFFF" p-id="4304"></path><path d="M761.6 512c25.6 0 57.6-6.4 96 44.8l12.8 12.8c25.6 38.4 25.6 76.8 25.6 76.8v-25.6c0-12.8-6.4-32-19.2-51.2l-12.8-12.8c-51.2-38.4-76.8-38.4-102.4-44.8z m153.6 185.6H896l-6.4 19.2-6.4-19.2h-19.2l19.2-12.8-6.4-19.2 12.8 12.8 19.2-12.8-6.4 19.2 12.8 12.8z" fill="#FF0000" p-id="4305"></path><path d="M761.6 518.4c51.2 83.2 19.2 198.4-64 249.6-44.8 25.6-140.8 38.4-198.4-38.4 38.4 6.4 70.4 0 70.4-44.8s44.8-89.6 96-76.8c44.8 12.8 108.8-19.2 96-89.6z" fill="#FFFFFF" p-id="4306"></path><path d="M761.6 518.4c6.4 25.6 19.2 57.6-6.4 108.8l-12.8 19.2c-25.6 38.4-64 51.2-64 51.2s6.4 0 19.2-6.4 25.6-19.2 38.4-38.4l12.8-19.2c32-64 19.2-89.6 12.8-115.2z m-115.2 211.2l-6.4-19.2h-19.2l19.2-12.8-6.4-19.2 12.8 12.8 19.2-12.8-6.4 19.2 12.8 12.8h-19.2l-6.4 19.2z" fill="#FF0000" p-id="4307"></path><path d="M761.6 518.4c-57.6 70.4-172.8 76.8-243.2 12.8-38.4-38.4-76.8-128-25.6-211.2 0 38.4 19.2 70.4 57.6 57.6 44.8-12.8 89.6 19.2 96 70.4 6.4 51.2 57.6 102.4 115.2 70.4z" fill="#FFFFFF" p-id="4308"></path><path d="M761.6 518.4c-19.2 12.8-44.8 38.4-102.4 25.6l-19.2-6.4c-44.8-12.8-64-51.2-64-51.2v-6.4s6.4 6.4 12.8 19.2c12.8 12.8 25.6 19.2 44.8 32l19.2 6.4c64 12.8 89.6-6.4 108.8-19.2z m-230.4-51.2l19.2-12.8-6.4-19.2 12.8 12.8 19.2-6.4-6.4 19.2 12.8 12.8h-19.2l-6.4 12.8-6.4-19.2h-19.2z" fill="#FF0000" p-id="4309"></path></svg>