<svg width="24" height="24" viewBox="0 0 24 24" fill="none" xmlns="http://www.w3.org/2000/svg">
<path d="M22.5953 15.2587L20.9662 4.4715C20.9025 3.66075 20.1877 3 19.3283 3H4.77375C4.35962 2.99996 3.96065 3.15579 3.65618 3.4365C3.3517 3.71721 3.16404 4.10223 3.1305 4.515L1.5075 15.0217L1.5 15.1365L1.5795 18.8505L1.6005 18.9285C1.69509 19.278 1.90215 19.5866 2.18968 19.8066C2.47721 20.0266 2.8292 20.1458 3.19125 20.1458H20.9227C21.6562 20.1458 22.302 19.6605 22.506 18.9562L22.5308 18.8722L22.602 15.3705L22.5953 15.2587ZM4.4385 4.66875C4.458 4.44975 4.60125 4.31775 4.773 4.31775H19.3275C19.4104 4.31786 19.4902 4.34917 19.5511 4.40546C19.612 4.46174 19.6494 4.53886 19.656 4.6215L21.114 14.2815H2.95575L4.4385 4.66875ZM21.2167 18.6488C21.189 18.7025 21.1469 18.7477 21.0952 18.7791C21.0434 18.8106 20.9841 18.8273 20.9235 18.8273H3.192C3.12974 18.8273 3.06874 18.8097 3.01605 18.7765C2.96336 18.7433 2.92114 18.6959 2.89425 18.6398L2.82825 15.6007H21.279L21.2167 18.6488Z" fill="white"/>
<path d="M17.6535 18.1643H19.6305C19.7999 18.1562 19.9597 18.0832 20.0767 17.9604C20.1937 17.8377 20.259 17.6746 20.259 17.505C20.259 17.3354 20.1937 17.1723 20.0767 17.0496C19.9597 16.9268 19.7999 16.8538 19.6305 16.8458H17.6535C17.4841 16.8538 17.3243 16.9268 17.2073 17.0496C17.0902 17.1723 17.0249 17.3354 17.0249 17.505C17.0249 17.6746 17.0902 17.8377 17.2073 17.9604C17.3243 18.0832 17.4841 18.1562 17.6535 18.1643ZM15.0172 18.1643H15.3465C15.5159 18.1562 15.6757 18.0832 15.7927 17.9604C15.9097 17.8377 15.975 17.6746 15.975 17.505C15.975 17.3354 15.9097 17.1723 15.7927 17.0496C15.6757 16.9268 15.5159 16.8538 15.3465 16.8458H15.0172C14.8478 16.8538 14.688 16.9268 14.571 17.0496C14.454 17.1723 14.3887 17.3354 14.3887 17.505C14.3887 17.6746 14.454 17.8377 14.571 17.9604C14.688 18.0832 14.8478 18.1562 15.0172 18.1643ZM12.381 18.1643H12.7102C12.8796 18.1562 13.0394 18.0832 13.1565 17.9604C13.2735 17.8377 13.3388 17.6746 13.3388 17.505C13.3388 17.3354 13.2735 17.1723 13.1565 17.0496C13.0394 16.9268 12.8796 16.8538 12.7102 16.8458H12.381C12.2116 16.8538 12.0518 16.9268 11.9348 17.0496C11.8177 17.1723 11.7524 17.3354 11.7524 17.505C11.7524 17.6746 11.8177 17.8377 11.9348 17.9604C12.0518 18.0832 12.2116 18.1562 12.381 18.1643Z" fill="white"/>
</svg>
