<svg width="24" height="24" viewBox="0 0 24 24" fill="none" xmlns="http://www.w3.org/2000/svg">
<path d="M14.5143 18.4C14.5143 18.7787 14.2073 19.0857 13.8286 19.0857H10.1714C9.79272 19.0857 9.48571 18.7787 9.48571 18.4C9.48571 18.0213 9.79272 17.7143 10.1714 17.7143H13.8286C14.2073 17.7143 14.5143 18.0213 14.5143 18.4Z" fill="white"/>
<path fill-rule="evenodd" clip-rule="evenodd" d="M11.7145 7.65716C10.1978 7.65716 8.87523 8.65517 8.5411 10.0545C7.51447 10.4895 6.74286 11.4369 6.74286 12.6095C6.74286 14.1853 8.11997 15.3483 9.6794 15.4277C9.69102 15.4283 9.70265 15.4286 9.71429 15.4286H14.0003C15.7884 15.4286 17.2571 13.9968 17.2571 12.2094C17.2571 10.5793 16.0007 9.29278 14.4278 9.03898C13.8394 8.1977 12.8367 7.65716 11.7145 7.65716ZM9.83625 10.6208C9.90207 9.7698 10.6796 9.02859 11.7145 9.02859C12.48 9.02859 13.1158 9.44103 13.4135 10.0041C13.5259 10.2167 13.7414 10.3549 13.9816 10.3683C15.0869 10.4298 15.8857 11.2688 15.8857 12.2094C15.8857 13.2201 15.0504 14.0572 14.0003 14.0572H9.73292C8.75187 13.9999 8.11429 13.3009 8.11429 12.6095C8.11429 12.0177 8.56956 11.4326 9.32892 11.2305C9.61036 11.1556 9.81379 10.9111 9.83625 10.6208Z" fill="white"/>
<path fill-rule="evenodd" clip-rule="evenodd" d="M4 5.60002C4 3.70647 5.53502 2.17145 7.42857 2.17145H16.5714C18.465 2.17145 20 3.70647 20 5.60002V18.4C20 20.2936 18.465 21.8286 16.5714 21.8286H7.42857C5.53502 21.8286 4 20.2936 4 18.4V5.60002ZM7.42857 3.54288C6.29244 3.54288 5.37143 4.46389 5.37143 5.60002V18.4C5.37143 19.5361 6.29244 20.4572 7.42857 20.4572H16.5714C17.7076 20.4572 18.6286 19.5361 18.6286 18.4V5.60002C18.6286 4.46389 17.7076 3.54288 16.5714 3.54288H7.42857Z" fill="white"/>
</svg>
