<?xml version="1.0" standalone="no"?><!DOCTYPE svg PUBLIC "-//W3C//DTD SVG 1.1//EN" "http://www.w3.org/Graphics/SVG/1.1/DTD/svg11.dtd"><svg t="1760969106554" class="icon" viewBox="0 0 1024 1024" version="1.1" xmlns="http://www.w3.org/2000/svg" p-id="6175" width="32" height="32" xmlns:xlink="http://www.w3.org/1999/xlink"><path d="M192 128a64 64 0 0 0-64 64v640a64 64 0 0 0 64 64h640a64 64 0 0 0 64-64V192a64 64 0 0 0-64-64H192m0-128h640a192 192 0 0 1 192 192v640a192 192 0 0 1-192 192H192a192 192 0 0 1-192-192V192a192 192 0 0 1 192-192z" fill="#1693F6" p-id="6176"></path><path d="M545.152 774.016L437.76 666.624a162.048 162.048 0 0 1 0-228.864 48 48 0 0 1 67.84 0 48 48 0 0 1 0 67.84 65.92 65.92 0 0 0 0 93.184l107.392 107.328a65.856 65.856 0 1 0 93.12-93.12l-53.696-53.696a48 48 0 0 1 0-67.84 48 48 0 0 1 67.84 0l53.76 53.632a161.856 161.856 0 1 1-228.928 228.928z" fill="#1693F6" p-id="6177"></path><path d="M303.616 532.48l-53.696-53.696a161.856 161.856 0 0 1 228.928-228.864l107.328 107.328a162.048 162.048 0 0 1 0.064 228.928A48 48 0 0 1 518.4 518.4a65.92 65.92 0 0 0-0.064-93.184L410.88 317.76a65.856 65.856 0 0 0-93.12 93.184l53.696 53.632a48 48 0 0 1-67.84 67.84z" fill="#1693F6" p-id="6178"></path></svg>