<?xml version="1.0" standalone="no"?><!DOCTYPE svg PUBLIC "-//W3C//DTD SVG 1.1//EN" "http://www.w3.org/Graphics/SVG/1.1/DTD/svg11.dtd"><svg t="1760336523702" class="icon" viewBox="0 0 1024 1024" version="1.1" xmlns="http://www.w3.org/2000/svg" p-id="1045" width="24" height="24" xmlns:xlink="http://www.w3.org/1999/xlink"><path d="M427.690667 262.144a64 64 0 0 1 45.226666 61.155556v417.450666a64 64 0 0 1-45.226666 61.155556l-287.971556 88.632889A64 64 0 0 1 56.888889 829.44V234.666667A64 64 0 0 1 139.719111 173.511111l287.971556 88.632889z m-306.801778-27.477333V829.44l288.028444-88.632889V323.356444L120.888889 234.666667z m416.028444 88.632889a64 64 0 0 1 45.169778-61.155556l287.971556-88.632889a64 64 0 0 1 82.830222 61.155556V829.44a64.113778 64.113778 0 0 1-82.830222 61.155556l-287.971556-88.632889a64 64 0 0 1-45.169778-61.155556V323.356444z m63.943111 0v417.450666l288.028445 88.632889V234.666667l-288.028445 88.632889z" fill="#262626" p-id="1046"></path></svg>