<svg width="24" height="24" viewBox="0 0 24 24" fill="none" xmlns="http://www.w3.org/2000/svg">
<path d="M3.05249 4.00948C3.20251 3.56222 3.4893 3.17344 3.87233 2.89807C4.25536 2.62271 4.71525 2.4747 5.18699 2.47498H18.813C19.2847 2.4747 19.7446 2.62271 20.1277 2.89807C20.5107 3.17344 20.7975 3.56222 20.9475 4.00948L21.822 6.62248C22.263 7.93648 22.44 9.71248 21.2775 10.9875C20.67 11.652 19.7535 12.288 18.4995 12.288C17.8937 12.296 17.2928 12.1795 16.7339 11.9458C16.175 11.712 15.6701 11.3659 15.2505 10.929C14.8307 11.3662 14.3256 11.7124 13.7664 11.9462C13.2073 12.18 12.606 12.2963 12 12.288C11.394 12.2962 10.7928 12.1798 10.2336 11.9461C9.67445 11.7123 9.1693 11.3661 8.74949 10.929C8.32986 11.3659 7.82495 11.712 7.26607 11.9458C6.70719 12.1795 6.10624 12.296 5.50049 12.288C4.24649 12.288 3.32999 11.652 2.72249 10.9875C1.55999 9.71248 1.73699 7.93648 2.17799 6.62248L3.05249 4.00948ZM5.18699 3.97498C5.02983 3.97499 4.87665 4.02437 4.74907 4.11615C4.62149 4.20793 4.52597 4.33747 4.47599 4.48648L3.59999 7.09948C3.20999 8.25898 3.23399 9.32248 3.83099 9.97498C4.25999 10.446 4.80299 10.788 5.50049 10.788C6.73799 10.788 7.47149 10.146 7.83449 9.70498C7.94718 9.57283 8.08757 9.4671 8.2457 9.39529C8.40384 9.32348 8.57583 9.28735 8.74949 9.28948C9.04199 9.28948 9.40949 9.39448 9.66449 9.70498C10.029 10.146 10.7625 10.788 12 10.788C13.2375 10.788 13.971 10.146 14.334 9.70498C14.4467 9.57283 14.5871 9.4671 14.7452 9.39529C14.9033 9.32348 15.0753 9.28735 15.249 9.28948C15.5415 9.28948 15.909 9.39448 16.1655 9.70498C16.5285 10.146 17.2605 10.788 18.4995 10.788C19.197 10.788 19.74 10.446 20.169 9.97498C20.766 9.32248 20.7885 8.25898 20.4 7.09948L19.524 4.48648C19.474 4.33747 19.3785 4.20793 19.2509 4.11615C19.1233 4.02437 18.9702 3.97499 18.813 3.97498H5.18699Z" fill="white"/>
<path d="M4.95001 11.025V19.275C4.95001 19.4739 5.02903 19.6647 5.16968 19.8054C5.31033 19.946 5.5011 20.025 5.70001 20.025H18.3C18.4989 20.025 18.6897 19.946 18.8303 19.8054C18.971 19.6647 19.05 19.4739 19.05 19.275V11.07H20.55V19.275C20.55 19.8718 20.313 20.4441 19.891 20.866C19.469 21.288 18.8967 21.525 18.3 21.525H5.70001C5.10327 21.525 4.53098 21.288 4.10902 20.866C3.68707 20.4441 3.45001 19.8718 3.45001 19.275V11.025H4.95001Z" fill="white"/>
<path d="M8.25 16.5C8.25 16.3011 8.32902 16.1103 8.46967 15.9697C8.61032 15.829 8.80109 15.75 9 15.75H15C15.1989 15.75 15.3897 15.829 15.5303 15.9697C15.671 16.1103 15.75 16.3011 15.75 16.5C15.75 16.6989 15.671 16.8897 15.5303 17.0303C15.3897 17.171 15.1989 17.25 15 17.25H9C8.80109 17.25 8.61032 17.171 8.46967 17.0303C8.32902 16.8897 8.25 16.6989 8.25 16.5Z" fill="white"/>
</svg>
