<svg width="24" height="24" viewBox="0 0 24 24" fill="none" xmlns="http://www.w3.org/2000/svg">
<path d="M8.43976 4.74268C8.68322 4.74268 8.91149 4.8613 9.05206 5.06006L10.5989 7.24951C12.2693 5.69495 14.5083 4.74279 16.97 4.74268H23.0013C23.2813 4.74268 23.5383 4.8994 23.6673 5.14795C23.7959 5.3965 23.7758 5.69652 23.6146 5.92529L19.387 11.9194C19.2465 12.1186 19.0175 12.2368 18.7737 12.2368H16.97C15.9422 12.237 15.109 13.0704 15.1087 14.0981L15.1224 14.3267C15.1867 14.8497 15.4698 15.3059 15.8802 15.604C16.2121 15.8449 16.2893 16.3088 16.053 16.644L12.5989 21.5425C12.484 21.7055 12.3083 21.8156 12.1116 21.8491C11.9152 21.8826 11.7135 21.8366 11.5511 21.7212C9.60193 20.3331 8.20432 18.215 7.763 15.7642C7.51136 15.777 7.2639 15.6638 7.11261 15.4497L0.388 5.92529C0.226589 5.6965 0.205583 5.39661 0.33429 5.14795C0.463222 4.8993 0.720203 4.74269 1.00031 4.74268H8.43976ZM16.97 6.24268C12.6318 6.24289 9.11486 9.76001 9.11456 14.0981L9.11847 14.3452C9.18869 16.6149 10.2245 18.639 11.8284 20.0298L14.4476 16.3149C13.9276 15.7245 13.6087 14.9498 13.6087 14.0981L13.6126 13.9253C13.7028 12.1494 15.1719 10.7371 16.97 10.7368H18.3841L21.554 6.24268H16.97ZM7.02472 12.7251C7.27794 10.8753 8.03505 9.18604 9.15265 7.80029L8.05206 6.24268H2.44757L7.02472 12.7251Z" fill="white"/>
</svg>
