<svg width="18" height="18" viewBox="0 0 18 18" fill="none" xmlns="http://www.w3.org/2000/svg">
<path d="M2.28046 8.23967L1 13.0117V3.85527C1.00025 3.62851 1.08898 3.41112 1.24673 3.25079C1.40448 3.09045 1.61835 3.00026 1.84144 3H5.83954C5.95009 2.99969 6.05959 3.02167 6.16173 3.06467C6.26386 3.10767 6.35659 3.17082 6.43454 3.25049L8.15823 5.00249C8.1738 5.01845 8.19234 5.0311 8.21276 5.0397C8.23318 5.04831 8.25508 5.05271 8.27719 5.05263H14.2947C14.5178 5.05289 14.7317 5.14308 14.8895 5.30342C15.0472 5.46375 15.1359 5.68115 15.1362 5.9079V7.10527H3.74162C3.40951 7.10581 3.08674 7.21707 2.82281 7.42198C2.55888 7.62689 2.36836 7.91413 2.28046 8.23967ZM16.8269 8.12559C16.7486 8.02071 16.6475 7.93575 16.5315 7.87742C16.4154 7.81908 16.2876 7.78898 16.1581 7.78948H3.74162C3.55705 7.78983 3.37768 7.85173 3.23105 7.96566C3.08441 8.0796 2.9786 8.23929 2.92984 8.42023L1.18575 14.9202C1.1518 15.0471 1.14707 15.1802 1.17193 15.3092C1.1968 15.4382 1.25058 15.5596 1.3291 15.664C1.40762 15.7685 1.50877 15.8531 1.6247 15.9114C1.74062 15.9697 1.8682 16 1.99753 16H14.414C14.5986 15.9996 14.778 15.9378 14.9246 15.8238C15.0712 15.7099 15.177 15.5502 15.2258 15.3692L16.9699 8.86925C17.0043 8.74249 17.0093 8.60934 16.9845 8.48029C16.9596 8.35124 16.9056 8.22982 16.8267 8.12559H16.8269Z" fill="url(#paint0_linear_149_5099)"/>
<defs>
<linearGradient id="paint0_linear_149_5099" x1="9" y1="3" x2="9" y2="16" gradientUnits="userSpaceOnUse">
<stop stop-color="#7AC5FF"/>
<stop offset="1" stop-color="#1C7EFF"/>
</linearGradient>
</defs>
</svg>
