<svg width="18" height="18" viewBox="0 0 18 18" fill="none" xmlns="http://www.w3.org/2000/svg">
<path d="M6.98753 8.34235H2.33056C1.59875 8.34235 1 7.74298 1 7.01041V2.3486C1 1.61602 1.59875 1.01665 2.33056 1.01665H6.98753C7.71934 1.01665 8.31809 1.61602 8.31809 2.3486V7.01041C8.31809 7.74298 7.71934 8.34235 6.98753 8.34235ZM2.33056 2.3486V7.01041H6.98753V2.3486H2.33056ZM13.0083 9.00832C12.6757 9.00832 12.3763 8.87513 12.1435 8.64204L9.38254 5.87825C9.14969 5.64516 9.01663 5.34547 9.01663 5.01249C9.01663 4.6795 9.14969 4.37981 9.38254 4.14672L12.1435 1.34964C12.6091 0.883455 13.4075 0.883455 13.8732 1.34964L16.6341 4.14672C16.8669 4.37981 17 4.6795 17 5.01249C17 5.34547 16.8669 5.64516 16.6341 5.87825L13.8732 8.64204C13.6403 8.87513 13.341 9.00832 13.0083 9.00832ZM10.4137 5.01249L13.0416 7.64308L15.6362 5.01249L13.0083 2.38189L10.4137 5.01249ZM6.98753 17H2.33056C1.59875 17 1 16.4006 1 15.6681V11.0062C1 10.2737 1.59875 9.6743 2.33056 9.6743H6.98753C7.71934 9.6743 8.31809 10.2737 8.31809 11.0062V15.6681C8.31809 16.4006 7.71934 17 6.98753 17ZM2.33056 11.0062V15.6681H6.98753V11.0062H2.33056ZM15.6694 17H11.0125C10.2807 17 9.68191 16.4006 9.68191 15.6681V11.0062C9.68191 10.2737 10.2807 9.6743 11.0125 9.6743H15.6694C16.4012 9.6743 17 10.2737 17 11.0062V15.6681C17 16.4006 16.4012 17 15.6694 17ZM11.0125 11.0062V15.6681H15.6694V11.0062H11.0125Z" fill="#007AFF"/>
</svg>
