<svg width="14" height="14" viewBox="0 0 14 14" fill="none" xmlns="http://www.w3.org/2000/svg">
<path d="M6.13871 7.86128C6.32351 8.04624 6.62616 8.04624 6.81095 7.86128L12.8613 1.81088C13.0462 1.62608 13.0462 1.32352 12.8613 1.13872C12.6765 0.953761 12.374 0.953761 12.189 1.13872L6.13871 7.18912C5.95376 7.37392 5.95376 7.67648 6.13871 7.86128Z" fill="#007AFF"/>
<path d="M12.561 5.73836C12.3186 5.73836 12.122 5.93251 12.122 6.17209V11.2651C12.122 11.7422 11.7268 12.1325 11.2438 12.1325H2.75601C2.27322 12.1325 1.87801 11.7422 1.87801 11.2651V2.73491C1.87801 2.25794 2.27322 1.86746 2.75601 1.86746H7.61847C7.86101 1.86746 8.05747 1.6733 8.05747 1.43373C8.05747 1.19415 7.86101 1 7.61847 1H2.75601C1.79029 1 1 1.78083 1 2.73491V11.2651C1 12.2193 1.79029 13 2.75601 13H11.2438C12.2097 13 13 12.2193 13 11.2651V6.17209C13 5.93251 12.8034 5.73836 12.561 5.73836Z" fill="#007AFF"/>
</svg>
