<svg width="18" height="18" viewBox="0 0 18 18" fill="none" xmlns="http://www.w3.org/2000/svg">
<path d="M15.886 8.01628H6.04889C5.50564 8.01628 5.06517 8.45674 5.06517 9.00001C5.06517 9.54277 5.50562 9.98373 6.04889 9.98373H15.886C16.4297 9.98373 16.8697 9.54277 16.8697 9.00001C16.8697 8.45676 16.4297 8.01628 15.886 8.01628ZM2.11407 8.01628C1.57081 8.01628 1.13034 8.45674 1.13034 9.00001C1.13034 9.54277 1.5708 9.98373 2.11407 9.98373C2.65733 9.98373 3.09777 9.54277 3.09777 9.00001C3.09777 8.45676 2.6573 8.01628 2.11407 8.01628ZM2.11407 3.09775C1.57081 3.09775 1.13034 3.5382 1.13034 4.08147C1.13034 4.62474 1.5708 5.0652 2.11407 5.0652C2.65733 5.0652 3.09777 4.62474 3.09777 4.08147C3.09777 3.5382 2.6573 3.09775 2.11407 3.09775ZM6.04889 5.06518H15.886C16.4297 5.06518 16.8697 4.62472 16.8697 4.08145C16.8697 3.53819 16.4297 3.09775 15.886 3.09775H6.04889C5.50564 3.09775 5.06517 3.53819 5.06517 4.08145C5.06517 4.62472 5.50564 5.06518 6.04889 5.06518ZM15.886 12.9348H6.04889C5.50564 12.9348 5.06517 13.3758 5.06517 13.9186C5.06517 14.4613 5.50562 14.9023 6.04889 14.9023H15.886C16.4297 14.9023 16.8697 14.4613 16.8697 13.9186C16.8697 13.3758 16.4297 12.9348 15.886 12.9348ZM2.11407 12.9348C1.57081 12.9348 1.13034 13.3758 1.13034 13.9186C1.13034 14.4613 1.5708 14.9023 2.11407 14.9023C2.65733 14.9023 3.09777 14.4613 3.09777 13.9186C3.09777 13.3758 2.6573 12.9348 2.11407 12.9348Z" fill="#007AFF"/>
</svg>
