<svg width="14" height="14" viewBox="0 0 14 14" fill="none" xmlns="http://www.w3.org/2000/svg">
<path d="M7.49994 1.5V9C7.49994 9.275 7.27494 9.5 6.99994 9.5C6.72494 9.5 6.49994 9.275 6.49994 9V1.5C6.49994 1.225 6.72494 1 6.99994 1C7.27494 1 7.49994 1.225 7.49994 1.5Z" fill="white"/>
<path d="M10.3476 6.35866L7.35214 9.35426C7.25821 9.44768 7.13112 9.50012 6.99864 9.50012C6.86617 9.50012 6.73907 9.44768 6.64514 9.35426C6.45064 9.15966 6.45064 8.84126 6.64514 8.64726L9.64064 5.65166C9.73458 5.55824 9.86167 5.50581 9.99414 5.50581C10.1266 5.50581 10.2537 5.55824 10.3476 5.65166C10.4411 5.7456 10.4935 5.87269 10.4935 6.00516C10.4935 6.13764 10.4411 6.26473 10.3476 6.35866Z" fill="white"/>
<path d="M6.64636 9.35406L3.65086 6.35866C3.55744 6.26472 3.505 6.13763 3.505 6.00516C3.505 5.87268 3.55744 5.74559 3.65086 5.65166C3.84536 5.45706 4.16386 5.45706 4.35786 5.65166L7.35336 8.64716C7.44678 8.74109 7.49922 8.86818 7.49922 9.00066C7.49922 9.13313 7.44678 9.26022 7.35336 9.35416C7.25943 9.44757 7.13234 9.50001 6.99986 9.50001C6.86739 9.50001 6.74029 9.44757 6.64636 9.35416" fill="white"/>
<path d="M11.5 13H2.5C1.673 13 1 12.327 1 11.5V8.50001C1 8.22351 1.2235 8.00001 1.5 8.00001C1.7765 8.00001 2 8.22351 2 8.50001V11.5C2 11.776 2.224 12 2.5 12H11.5C11.776 12 12 11.776 12 11.5V8.50001C12 8.22351 12.2235 8.00001 12.5 8.00001C12.7765 8.00001 13 8.22351 13 8.50001V11.5C13 12.327 12.327 13 11.5 13Z" fill="white"/>
</svg>
